<svg xmlns="http://www.w3.org/2000/svg" xmlns:xlink="http://www.w3.org/1999/xlink" width="300" zoomAndPan="magnify" viewBox="0 0 350 300.999991" height="250" preserveAspectRatio="xMidYMid meet" version="1.0"><defs><g/></defs><rect x="-37.5" width="350" fill="#ffffff" y="-37.499999" height="449.999989" fill-opacity="1"/><rect x="-37.5" width="450" fill="#000000" y="-37.499999" height="449.999989" fill-opacity="1"/><g fill="#ffffff" fill-opacity="1"><g transform="translate(80.782052, 182.212195)"><g><path d="M 17.203125 -11.203125 L 13.421875 0 L 12.171875 0 L 8.890625 -9.546875 L 5.59375 0 L 4.375 0 L 0.59375 -11.203125 L 1.8125 -11.203125 L 5.046875 -1.5625 L 8.390625 -11.203125 L 9.484375 -11.203125 L 12.78125 -1.515625 L 16.0625 -11.203125 Z M 17.203125 -11.203125 "/></g></g></g><g fill="#ffffff" fill-opacity="1"><g transform="translate(105.753808, 182.212195)"><g><path d="M 11.1875 -11.203125 L 11.1875 0 L 10.015625 0 L 10.015625 -5.171875 L 3.015625 -5.171875 L 3.015625 0 L 1.828125 0 L 1.828125 -11.203125 L 3.015625 -11.203125 L 3.015625 -6.203125 L 10.015625 -6.203125 L 10.015625 -11.203125 Z M 11.1875 -11.203125 "/></g></g></g><g fill="#ffffff" fill-opacity="1"><g transform="translate(125.9587, 182.212195)"><g><path d="M 1.828125 -11.203125 L 3.015625 -11.203125 L 3.015625 0 L 1.828125 0 Z M 1.828125 -11.203125 "/></g></g></g><g fill="#ffffff" fill-opacity="1"><g transform="translate(137.989558, 182.212195)"><g><path d="M 4 -10.171875 L 0.0625 -10.171875 L 0.0625 -11.203125 L 9.125 -11.203125 L 9.125 -10.171875 L 5.1875 -10.171875 L 5.1875 0 L 4 0 Z M 4 -10.171875 "/></g></g></g><g fill="#ffffff" fill-opacity="1"><g transform="translate(154.371368, 182.212195)"><g><path d="M 9.75 -1.03125 L 9.75 0 L 1.828125 0 L 1.828125 -11.203125 L 9.5 -11.203125 L 9.5 -10.171875 L 3.015625 -10.171875 L 3.015625 -6.1875 L 8.796875 -6.1875 L 8.796875 -5.1875 L 3.015625 -5.1875 L 3.015625 -1.03125 Z M 9.75 -1.03125 "/></g></g></g><g fill="#ffffff" fill-opacity="1"><g transform="translate(151.407827, 200.097359)"><g><path d="M 28 9.359375 C 27.394531 9.359375 26.941406 9.238281 26.640625 9 C 26.046875 8.582031 25.628906 7.984375 25.390625 7.203125 L 25.203125 6.125 C 25.023438 5.28125 25.007812 4.210938 25.15625 2.921875 C 25.3125 1.628906 25.566406 0.566406 25.921875 -0.265625 L 26.1875 -1.171875 C 26.1875 -1.347656 26.21875 -1.507812 26.28125 -1.65625 C 26.34375 -1.8125 26.40625 -1.921875 26.46875 -1.984375 C 26.582031 -2.097656 26.640625 -2.21875 26.640625 -2.34375 C 26.578125 -2.519531 26.609375 -2.609375 26.734375 -2.609375 C 26.859375 -2.609375 26.921875 -2.726562 26.921875 -2.96875 C 26.921875 -3.09375 26.929688 -3.195312 26.953125 -3.28125 C 26.984375 -3.375 27 -3.421875 27 -3.421875 C 27.125 -3.484375 27.441406 -3.992188 27.953125 -4.953125 C 28.460938 -5.910156 29.015625 -7.019531 29.609375 -8.28125 C 29.734375 -8.582031 29.851562 -8.835938 29.96875 -9.046875 C 30.09375 -9.253906 30.1875 -9.359375 30.25 -9.359375 C 30.363281 -9.484375 30.421875 -9.632812 30.421875 -9.8125 L 30.609375 -10.265625 C 30.722656 -10.265625 30.992188 -10.710938 31.421875 -11.609375 C 31.535156 -11.910156 31.648438 -12.148438 31.765625 -12.328125 C 31.890625 -12.515625 32.160156 -12.9375 32.578125 -13.59375 L 33.3125 -14.9375 C 33.3125 -15.175781 33.367188 -15.296875 33.484375 -15.296875 L 35.28125 -18.1875 L 35.640625 -18.71875 L 36.09375 -19.53125 C 36.507812 -20.070312 36.660156 -20.34375 36.546875 -20.34375 C 36.546875 -20.40625 36.304688 -20.195312 35.828125 -19.71875 C 35.285156 -19.175781 34.984375 -18.90625 34.921875 -18.90625 L 34.390625 -18.359375 L 33.484375 -17.375 C 33.242188 -17.132812 33.125 -16.925781 33.125 -16.75 C 33.1875 -16.75 33.203125 -16.734375 33.171875 -16.703125 C 33.140625 -16.671875 33.09375 -16.6875 33.03125 -16.75 C 32.914062 -16.75 32.4375 -16.328125 31.59375 -15.484375 L 27.09375 -11.078125 C 26.613281 -10.597656 26.101562 -10.113281 25.5625 -9.625 C 25.019531 -9.144531 24.390625 -8.578125 23.671875 -7.921875 L 22.59375 -6.9375 L 21.875 -6.390625 L 21.328125 -5.9375 L 18.09375 -3.328125 C 16.894531 -2.242188 16.113281 -1.566406 15.75 -1.296875 C 15.394531 -1.035156 15.066406 -0.90625 14.765625 -0.90625 C 13.859375 -0.90625 13.40625 -1.800781 13.40625 -3.59375 C 13.40625 -4.320312 13.46875 -4.925781 13.59375 -5.40625 C 13.707031 -5.882812 13.914062 -6.601562 14.21875 -7.5625 C 14.519531 -8.519531 14.789062 -9.207031 15.03125 -9.625 C 15.570312 -10.769531 16.234375 -12.09375 17.015625 -13.59375 C 17.796875 -15.09375 18.304688 -16.050781 18.546875 -16.46875 L 19.265625 -17.828125 L 19.890625 -18.90625 C 19.890625 -18.90625 20.222656 -19.566406 20.890625 -20.890625 L 21.6875 -22.328125 L 22.140625 -23.046875 C 22.316406 -23.398438 22.675781 -24 23.21875 -24.84375 C 23.757812 -25.6875 24.09375 -26.164062 24.21875 -26.28125 L 24.578125 -26.828125 C 24.691406 -27.003906 24.835938 -27.195312 25.015625 -27.40625 C 25.203125 -27.613281 25.445312 -27.898438 25.75 -28.265625 L 26.109375 -28.71875 C 26.222656 -28.894531 26.445312 -29.191406 26.78125 -29.609375 C 27.113281 -30.035156 27.398438 -30.398438 27.640625 -30.703125 L 30.0625 -33.75 C 30.238281 -33.9375 30.398438 -34.117188 30.546875 -34.296875 C 30.703125 -34.472656 30.8125 -34.59375 30.875 -34.65625 C 31 -34.78125 31.0625 -34.898438 31.0625 -35.015625 C 31.0625 -35.140625 31.117188 -35.203125 31.234375 -35.203125 C 31.234375 -35.203125 31.289062 -35.257812 31.40625 -35.375 C 31.53125 -35.5 31.625 -35.617188 31.6875 -35.734375 L 33.3125 -37.890625 L 34.03125 -38.703125 C 34.269531 -39.066406 34.390625 -39.28125 34.390625 -39.34375 C 34.390625 -39.394531 34.445312 -39.484375 34.5625 -39.609375 C 34.6875 -39.609375 34.988281 -39.90625 35.46875 -40.5 C 36.007812 -41.226562 36.546875 -41.90625 37.078125 -42.53125 C 37.617188 -43.164062 38.382812 -43.988281 39.375 -45 C 40.363281 -46.019531 41.757812 -47.460938 43.5625 -49.328125 C 44.769531 -50.523438 45.757812 -51.554688 46.53125 -52.421875 C 47.3125 -53.296875 47.765625 -53.828125 47.890625 -54.015625 C 48.003906 -54.253906 48.15625 -54.460938 48.34375 -54.640625 L 49.328125 -55.8125 L 50.140625 -56.703125 L 51.21875 -57.875 C 51.695312 -58.414062 52.3125 -59.078125 53.0625 -59.859375 C 53.8125 -60.640625 54.488281 -61.269531 55.09375 -61.75 L 56.265625 -62.734375 L 57.25 -63.640625 C 57.726562 -64.003906 58.085938 -64.304688 58.328125 -64.546875 L 59.765625 -65.984375 C 60.484375 -66.523438 60.84375 -66.882812 60.84375 -67.0625 C 60.84375 -67.175781 60.457031 -67.234375 59.6875 -67.234375 C 58.84375 -67.296875 58.085938 -67.3125 57.421875 -67.28125 C 56.765625 -67.25 56.046875 -67.234375 55.265625 -67.234375 L 51.671875 -67.0625 C 50.285156 -67 48.691406 -66.90625 46.890625 -66.78125 C 45.097656 -66.664062 43.238281 -66.550781 41.3125 -66.4375 L 39.25 -66.25 L 37.71875 -66.078125 L 35.109375 -65.71875 L 33.484375 -65.4375 L 31.5 -65.078125 C 31.257812 -65.015625 31.050781 -64.96875 30.875 -64.9375 C 30.695312 -64.914062 30.546875 -64.90625 30.421875 -64.90625 C 30.242188 -64.90625 29.78125 -64.828125 29.03125 -64.671875 C 28.28125 -64.523438 27.816406 -64.390625 27.640625 -64.265625 L 24.9375 -63.640625 C 24.507812 -63.578125 24.113281 -63.5 23.75 -63.40625 C 23.394531 -63.320312 23.160156 -63.28125 23.046875 -63.28125 C 22.867188 -63.28125 22.628906 -63.191406 22.328125 -63.015625 C 22.085938 -62.890625 21.816406 -62.828125 21.515625 -62.828125 C 21.210938 -62.828125 21.03125 -62.796875 20.96875 -62.734375 C 20.914062 -62.679688 20.78125 -62.625 20.5625 -62.5625 C 20.351562 -62.5 20.097656 -62.410156 19.796875 -62.296875 C 18.835938 -62.054688 18.207031 -61.90625 17.90625 -61.84375 C 17.613281 -61.78125 17.40625 -61.71875 17.28125 -61.65625 L 16.390625 -61.390625 C 15.898438 -61.265625 15.476562 -61.113281 15.125 -60.9375 L 12.421875 -59.6875 C 12.003906 -59.5 11.476562 -59.179688 10.84375 -58.734375 C 10.21875 -58.285156 9.84375 -57.941406 9.71875 -57.703125 C 9.65625 -57.523438 9.519531 -57.476562 9.3125 -57.5625 C 9.101562 -57.65625 9 -57.789062 9 -57.96875 C 9 -58.382812 9.476562 -58.925781 10.4375 -59.59375 C 10.5625 -59.707031 10.9375 -59.929688 11.5625 -60.265625 C 12.195312 -60.597656 12.8125 -60.882812 13.40625 -61.125 C 14.007812 -61.363281 14.863281 -61.675781 15.96875 -62.0625 C 17.082031 -62.457031 17.820312 -62.679688 18.1875 -62.734375 C 18.488281 -62.796875 18.878906 -62.882812 19.359375 -63 C 19.835938 -63.125 21.097656 -63.457031 23.140625 -64 C 25.472656 -64.65625 27.929688 -65.207031 30.515625 -65.65625 C 33.097656 -66.113281 35.5 -66.460938 37.71875 -66.703125 C 39.632812 -66.878906 41.3125 -67.039062 42.75 -67.1875 C 44.195312 -67.34375 45.28125 -67.421875 46 -67.421875 L 48.96875 -67.6875 C 49.445312 -67.75 50.101562 -67.796875 50.9375 -67.828125 C 51.78125 -67.859375 52.59375 -67.875 53.375 -67.875 L 56.171875 -67.96875 C 56.171875 -68.019531 56.632812 -68.03125 57.5625 -68 C 58.488281 -67.976562 59.445312 -67.96875 60.4375 -67.96875 C 61.4375 -67.96875 61.960938 -67.9375 62.015625 -67.875 C 62.203125 -67.875 62.320312 -67.753906 62.375 -67.515625 C 62.4375 -67.273438 62.410156 -67.09375 62.296875 -66.96875 C 61.992188 -66.425781 61.332031 -65.738281 60.3125 -64.90625 L 59.140625 -63.90625 C 59.078125 -63.851562 58.96875 -63.75 58.8125 -63.59375 C 58.664062 -63.445312 58.503906 -63.3125 58.328125 -63.1875 L 57.25 -62.296875 C 56.945312 -61.992188 56.585938 -61.675781 56.171875 -61.34375 C 55.753906 -61.007812 55.515625 -60.84375 55.453125 -60.84375 C 55.453125 -60.84375 55.4375 -60.828125 55.40625 -60.796875 C 55.375 -60.773438 55.359375 -60.734375 55.359375 -60.671875 C 55.359375 -60.492188 55.296875 -60.40625 55.171875 -60.40625 C 55.117188 -60.40625 54.835938 -60.175781 54.328125 -59.71875 C 53.816406 -59.269531 53.257812 -58.710938 52.65625 -58.046875 C 52.0625 -57.390625 51.519531 -56.796875 51.03125 -56.265625 L 49.59375 -54.734375 L 48.609375 -53.46875 C 47.890625 -52.6875 47.210938 -51.9375 46.578125 -51.21875 C 45.953125 -50.5 44.890625 -49.421875 43.390625 -47.984375 C 41.890625 -46.484375 40.566406 -45.113281 39.421875 -43.875 C 38.285156 -42.644531 37.597656 -41.882812 37.359375 -41.59375 C 37.234375 -41.40625 36.945312 -41.039062 36.5 -40.5 C 36.050781 -39.96875 35.707031 -39.582031 35.46875 -39.34375 L 31.140625 -33.84375 L 29.609375 -31.859375 L 28.8125 -30.96875 L 26.109375 -27.640625 L 25.75 -27.09375 L 24.671875 -25.65625 L 24.03125 -24.578125 L 23.40625 -23.578125 L 22.6875 -22.40625 L 22.328125 -21.78125 C 22.265625 -21.71875 22.140625 -21.535156 21.953125 -21.234375 C 21.773438 -20.941406 21.628906 -20.644531 21.515625 -20.34375 L 20.34375 -18.265625 L 19.53125 -16.75 L 19.171875 -16.109375 C 19.054688 -15.867188 18.816406 -15.445312 18.453125 -14.84375 C 18.085938 -14.25 17.753906 -13.679688 17.453125 -13.140625 C 17.160156 -12.597656 17.015625 -12.296875 17.015625 -12.234375 L 16.296875 -10.71875 C 15.515625 -9.15625 14.925781 -7.632812 14.53125 -6.15625 C 14.144531 -4.6875 14.039062 -3.503906 14.21875 -2.609375 C 14.40625 -1.710938 14.675781 -1.410156 15.03125 -1.703125 L 15.484375 -1.984375 L 17.828125 -3.953125 L 20.15625 -5.671875 L 21.328125 -6.65625 C 21.628906 -6.84375 22.050781 -7.160156 22.59375 -7.609375 C 23.132812 -8.054688 23.523438 -8.398438 23.765625 -8.640625 L 26.46875 -11.078125 C 26.820312 -11.429688 27.539062 -12.132812 28.625 -13.1875 C 29.707031 -14.238281 30.878906 -15.394531 32.140625 -16.65625 C 33.398438 -17.914062 34.523438 -19.054688 35.515625 -20.078125 C 36.503906 -21.097656 37.085938 -21.726562 37.265625 -21.96875 C 37.742188 -22.445312 37.953125 -22.773438 37.890625 -22.953125 C 37.890625 -23.015625 37.921875 -23.015625 37.984375 -22.953125 C 38.046875 -22.890625 38.226562 -23.007812 38.53125 -23.3125 C 38.832031 -23.613281 39.640625 -24.570312 40.953125 -26.1875 L 42.03125 -27.546875 L 42.75 -28.359375 C 42.9375 -28.597656 43.101562 -28.789062 43.25 -28.9375 C 43.40625 -29.09375 43.484375 -29.195312 43.484375 -29.25 C 43.484375 -29.3125 43.492188 -29.359375 43.515625 -29.390625 C 43.546875 -29.421875 43.5625 -29.46875 43.5625 -29.53125 C 43.6875 -29.582031 43.941406 -29.863281 44.328125 -30.375 C 44.722656 -30.882812 44.890625 -31.171875 44.828125 -31.234375 C 44.828125 -31.296875 44.859375 -31.328125 44.921875 -31.328125 C 44.984375 -31.265625 45.222656 -31.503906 45.640625 -32.046875 C 46.296875 -33.003906 46.878906 -33.828125 47.390625 -34.515625 C 47.898438 -35.210938 48.21875 -35.585938 48.34375 -35.640625 C 48.519531 -35.765625 48.679688 -35.765625 48.828125 -35.640625 C 48.984375 -35.523438 49.0625 -35.316406 49.0625 -35.015625 C 49.0625 -34.171875 48.640625 -33.332031 47.796875 -32.5 C 47.316406 -32.019531 46.957031 -31.597656 46.71875 -31.234375 C 46.476562 -30.878906 46.085938 -30.429688 45.546875 -29.890625 C 45.304688 -29.648438 45.09375 -29.4375 44.90625 -29.25 C 44.726562 -29.070312 44.640625 -28.953125 44.640625 -28.890625 C 44.640625 -28.890625 44.578125 -28.800781 44.453125 -28.625 C 44.335938 -28.445312 44.191406 -28.265625 44.015625 -28.078125 L 42.9375 -26.921875 C 42.695312 -26.554688 42.226562 -25.96875 41.53125 -25.15625 C 40.84375 -24.34375 40.378906 -23.789062 40.140625 -23.5 C 40.085938 -23.4375 40 -23.300781 39.875 -23.09375 C 39.757812 -22.882812 39.640625 -22.71875 39.515625 -22.59375 L 37.171875 -19.171875 L 36.453125 -17.90625 L 35.640625 -16.65625 L 34.5625 -14.9375 C 33.84375 -13.800781 33.347656 -13.003906 33.078125 -12.546875 C 32.804688 -12.097656 32.671875 -11.816406 32.671875 -11.703125 C 32.671875 -11.640625 32.492188 -11.3125 32.140625 -10.71875 C 31.898438 -10.351562 31.476562 -9.582031 30.875 -8.40625 C 30.269531 -7.238281 29.550781 -5.878906 28.71875 -4.328125 L 27.8125 -2.515625 C 27.75 -2.398438 27.613281 -2.023438 27.40625 -1.390625 C 27.195312 -0.765625 26.988281 -0.125 26.78125 0.53125 C 26.570312 1.195312 26.4375 1.617188 26.375 1.796875 C 26.070312 3.179688 26.007812 4.53125 26.1875 5.84375 C 26.375 7.164062 26.765625 7.976562 27.359375 8.28125 C 27.660156 8.40625 28.019531 8.4375 28.4375 8.375 C 28.5625 8.25 28.726562 8.140625 28.9375 8.046875 C 29.144531 7.960938 29.3125 7.890625 29.4375 7.828125 L 30.421875 7.109375 C 30.898438 6.867188 31.289062 6.539062 31.59375 6.125 L 32.671875 5.21875 C 33.148438 4.863281 33.566406 4.519531 33.921875 4.1875 C 34.285156 3.851562 34.441406 3.65625 34.390625 3.59375 C 34.390625 3.539062 34.414062 3.539062 34.46875 3.59375 C 34.53125 3.59375 34.984375 3.1875 35.828125 2.375 C 36.671875 1.570312 37.691406 0.585938 38.890625 -0.578125 C 40.085938 -1.753906 41.238281 -2.894531 42.34375 -4 C 43.457031 -5.113281 44.285156 -5.972656 44.828125 -6.578125 C 45.960938 -7.773438 46.832031 -8.789062 47.4375 -9.625 C 47.5 -9.625 47.585938 -9.6875 47.703125 -9.8125 C 47.703125 -9.8125 47.71875 -9.828125 47.75 -9.859375 C 47.78125 -9.890625 47.796875 -9.929688 47.796875 -9.984375 L 51.03125 -13.234375 L 52.203125 -14.5 L 53.015625 -15.390625 L 53.828125 -16.203125 C 54.003906 -16.328125 54.1875 -16.507812 54.375 -16.75 C 54.488281 -17.039062 54.609375 -17.1875 54.734375 -17.1875 C 54.785156 -17.1875 54.882812 -17.257812 55.03125 -17.40625 C 55.1875 -17.5625 55.597656 -18 56.265625 -18.71875 C 56.617188 -19.144531 57.066406 -19.65625 57.609375 -20.25 C 58.148438 -20.851562 58.644531 -21.378906 59.09375 -21.828125 C 59.539062 -22.273438 59.765625 -22.5 59.765625 -22.5 L 62.65625 -25.65625 L 65.796875 -29.25 L 66.703125 -30.328125 L 69.125 -32.953125 L 80.921875 -46.625 L 81.828125 -47.703125 L 82.09375 -48.0625 C 82.75 -48.84375 83.453125 -49.664062 84.203125 -50.53125 C 84.953125 -51.40625 85.75 -52.328125 86.59375 -53.296875 L 88.75 -55.8125 L 89.390625 -56.625 C 89.929688 -57.28125 90.203125 -58.054688 90.203125 -58.953125 C 90.203125 -59.441406 90.289062 -59.710938 90.46875 -59.765625 L 90.921875 -59.859375 C 91.335938 -59.859375 91.484375 -59.347656 91.359375 -58.328125 C 91.304688 -57.847656 91.097656 -57.398438 90.734375 -56.984375 L 89.46875 -55.546875 C 88.988281 -54.878906 88.601562 -54.425781 88.3125 -54.1875 C 87.945312 -53.945312 87.765625 -53.769531 87.765625 -53.65625 C 87.765625 -53.53125 87.644531 -53.347656 87.40625 -53.109375 C 87.164062 -52.867188 87.078125 -52.71875 87.140625 -52.65625 C 87.140625 -52.65625 87.140625 -52.640625 87.140625 -52.609375 C 87.140625 -52.578125 87.109375 -52.59375 87.046875 -52.65625 C 86.921875 -52.65625 86.769531 -52.566406 86.59375 -52.390625 C 86.476562 -52.148438 86.359375 -52.03125 86.234375 -52.03125 C 86.117188 -52.03125 86.0625 -51.96875 86.0625 -51.84375 C 86.0625 -51.789062 85.953125 -51.628906 85.734375 -51.359375 C 85.523438 -51.085938 85.332031 -50.859375 85.15625 -50.671875 C 84.976562 -50.492188 84.890625 -50.347656 84.890625 -50.234375 C 84.890625 -50.171875 84.859375 -50.140625 84.796875 -50.140625 C 84.734375 -50.203125 84.644531 -50.171875 84.53125 -50.046875 L 83.265625 -48.421875 C 82.546875 -47.648438 82.078125 -47.113281 81.859375 -46.8125 C 81.648438 -46.507812 81.578125 -46.328125 81.640625 -46.265625 C 81.640625 -46.265625 81.640625 -46.25 81.640625 -46.21875 C 81.640625 -46.1875 81.582031 -46.171875 81.46875 -46.171875 C 81.34375 -46.171875 81.191406 -46.023438 81.015625 -45.734375 L 79.9375 -44.5625 C 79.332031 -43.894531 78.609375 -43.066406 77.765625 -42.078125 C 76.929688 -41.085938 76.179688 -40.21875 75.515625 -39.46875 C 74.859375 -38.71875 74.53125 -38.34375 74.53125 -38.34375 C 74.53125 -38.226562 74.5 -38.171875 74.4375 -38.171875 C 74.382812 -38.171875 74.234375 -38.035156 73.984375 -37.765625 C 73.742188 -37.492188 73.445312 -37.144531 73.09375 -36.71875 C 72.375 -35.707031 71.925781 -35.203125 71.75 -35.203125 C 71.75 -35.203125 71.6875 -35.125 71.5625 -34.96875 C 71.4375 -34.820312 71.316406 -34.6875 71.203125 -34.5625 C 71.078125 -34.382812 70.941406 -34.21875 70.796875 -34.0625 C 70.648438 -33.914062 70.546875 -33.8125 70.484375 -33.75 C 70.359375 -33.75 70.238281 -33.570312 70.125 -33.21875 C 69.945312 -32.851562 69.734375 -32.640625 69.484375 -32.578125 L 68.765625 -31.859375 L 64.546875 -27.09375 L 63.1875 -25.65625 L 62.5625 -24.9375 C 62.5 -24.9375 62.257812 -24.664062 61.84375 -24.125 C 60.9375 -23.164062 60.425781 -22.6875 60.3125 -22.6875 C 60.1875 -22.6875 60.125 -22.625 60.125 -22.5 C 60.1875 -22.4375 60.171875 -22.332031 60.078125 -22.1875 C 59.992188 -22.039062 59.890625 -21.90625 59.765625 -21.78125 L 58.515625 -20.34375 L 57.0625 -18.8125 L 55.90625 -17.546875 L 54.375 -16.015625 L 53.296875 -14.765625 C 53.046875 -14.460938 52.695312 -14.070312 52.25 -13.59375 C 51.800781 -13.113281 51.367188 -12.660156 50.953125 -12.234375 L 49.953125 -11.25 L 48.78125 -9.984375 L 47.625 -8.828125 L 45.015625 -5.9375 C 44.234375 -5.101562 43.507812 -4.320312 42.84375 -3.59375 C 42.1875 -2.875 41.523438 -2.21875 40.859375 -1.625 L 39.515625 -0.265625 L 38.34375 0.984375 C 38.101562 1.222656 37.640625 1.6875 36.953125 2.375 C 36.265625 3.070312 35.738281 3.570312 35.375 3.875 C 35.070312 4.113281 34.84375 4.304688 34.6875 4.453125 C 34.539062 4.609375 34.378906 4.804688 34.203125 5.046875 C 34.085938 5.097656 33.9375 5.210938 33.75 5.390625 C 33.570312 5.578125 33.453125 5.671875 33.390625 5.671875 C 33.335938 5.671875 33.160156 5.820312 32.859375 6.125 C 32.554688 6.425781 32.164062 6.753906 31.6875 7.109375 L 30.515625 8.015625 C 29.554688 8.847656 28.71875 9.296875 28 9.359375 Z M 28 9.359375 "/></g></g></g><g fill="#ffffff" fill-opacity="1"><g transform="translate(225.663304, 200.097359)"><g><path d="M -0.90625 -24.578125 C -1.625 -24.515625 -2.070312 -24.5 -2.25 -24.53125 C -2.425781 -24.5625 -2.546875 -24.726562 -2.609375 -25.03125 C -2.734375 -25.320312 -2.613281 -25.769531 -2.25 -26.375 C -1.769531 -27.09375 -1.078125 -27.8125 -0.171875 -28.53125 C 0.722656 -29.25 1.617188 -29.757812 2.515625 -30.0625 C 3.960938 -30.601562 4.773438 -30.632812 4.953125 -30.15625 C 5.015625 -29.914062 4.351562 -29.316406 2.96875 -28.359375 C 2.1875 -27.816406 1.539062 -27.410156 1.03125 -27.140625 C 0.519531 -26.867188 0.0234375 -26.671875 -0.453125 -26.546875 C -0.992188 -26.429688 -1.320312 -26.222656 -1.4375 -25.921875 C -1.675781 -25.679688 -1.707031 -25.53125 -1.53125 -25.46875 C -0.988281 -25.289062 1.832031 -26.3125 6.9375 -28.53125 L 7.109375 -28.625 L 7.375 -28.625 L 7.46875 -28.53125 C 7.707031 -28.414062 7.738281 -28.265625 7.5625 -28.078125 L 6.390625 -27.546875 L 2.34375 -25.75 C 1.5625 -25.320312 0.941406 -25.046875 0.484375 -24.921875 C 0.0351562 -24.804688 -0.425781 -24.691406 -0.90625 -24.578125 Z M -0.1875 -27.546875 C -0.238281 -27.484375 -0.128906 -27.492188 0.140625 -27.578125 C 0.410156 -27.671875 0.785156 -27.835938 1.265625 -28.078125 C 1.679688 -28.316406 2.144531 -28.601562 2.65625 -28.9375 C 3.164062 -29.269531 3.453125 -29.46875 3.515625 -29.53125 C 3.515625 -29.644531 3.347656 -29.625 3.015625 -29.46875 C 2.679688 -29.320312 2.367188 -29.191406 2.078125 -29.078125 C 1.773438 -29.015625 1.335938 -28.769531 0.765625 -28.34375 C 0.191406 -27.925781 -0.125 -27.660156 -0.1875 -27.546875 Z M -0.1875 -27.546875 "/></g></g></g><g fill="#ffffff" fill-opacity="1"><g transform="translate(232.863838, 200.097359)"><g><path d="M -3.953125 -18.546875 C -4.078125 -18.609375 -4.171875 -18.710938 -4.234375 -18.859375 C -4.296875 -19.003906 -4.351562 -19.316406 -4.40625 -19.796875 C -4.46875 -20.285156 -4.4375 -20.875 -4.3125 -21.5625 C -4.195312 -22.25 -4.019531 -22.742188 -3.78125 -23.046875 C -3.65625 -23.398438 -3.59375 -23.609375 -3.59375 -23.671875 C -3.539062 -23.796875 -3.484375 -23.929688 -3.421875 -24.078125 C -3.359375 -24.222656 -3.238281 -24.421875 -3.0625 -24.671875 C -2.820312 -24.960938 -2.597656 -25.285156 -2.390625 -25.640625 C -2.179688 -26.003906 -2.078125 -26.21875 -2.078125 -26.28125 C -2.078125 -26.34375 -2.0625 -26.390625 -2.03125 -26.421875 C -2 -26.453125 -1.984375 -26.4375 -1.984375 -26.375 C -1.859375 -26.375 -1.796875 -26.460938 -1.796875 -26.640625 C -1.796875 -26.765625 -1.738281 -26.828125 -1.625 -26.828125 C -1.5625 -26.828125 -1.53125 -26.882812 -1.53125 -27 L -1.265625 -27.28125 C -1.140625 -27.28125 -1.046875 -27.367188 -0.984375 -27.546875 C -0.984375 -27.722656 -0.957031 -27.8125 -0.90625 -27.8125 L -0.1875 -28.71875 C 0.238281 -29.257812 0.484375 -29.53125 0.546875 -29.53125 C 0.597656 -29.53125 0.625 -29.585938 0.625 -29.703125 C 0.625 -29.765625 0.773438 -29.945312 1.078125 -30.25 L 1.4375 -30.703125 C 1.4375 -30.816406 1.554688 -30.992188 1.796875 -31.234375 L 1.625 -31.234375 C 1.5625 -31.234375 1.4375 -31.320312 1.25 -31.5 C 1.070312 -31.6875 0.984375 -31.804688 0.984375 -31.859375 C 0.984375 -32.046875 1.046875 -32.078125 1.171875 -31.953125 C 1.285156 -31.890625 1.507812 -31.914062 1.84375 -32.03125 C 2.175781 -32.15625 2.34375 -32.25 2.34375 -32.3125 C 2.34375 -32.3125 2.359375 -32.328125 2.390625 -32.359375 C 2.421875 -32.390625 2.460938 -32.375 2.515625 -32.3125 C 2.515625 -32.3125 2.546875 -32.3125 2.609375 -32.3125 C 2.671875 -32.3125 2.734375 -32.34375 2.796875 -32.40625 L 4.59375 -34.203125 C 4.832031 -34.378906 5.351562 -34.859375 6.15625 -35.640625 C 6.96875 -36.421875 7.613281 -37.023438 8.09375 -37.453125 C 9.300781 -38.472656 10.503906 -39.460938 11.703125 -40.421875 C 12.898438 -41.378906 14.070312 -42.28125 15.21875 -43.125 C 15.632812 -43.414062 16.082031 -43.710938 16.5625 -44.015625 C 17.039062 -44.316406 17.488281 -44.585938 17.90625 -44.828125 C 18.269531 -45.128906 18.75 -45.441406 19.34375 -45.765625 C 19.945312 -46.097656 20.488281 -46.328125 20.96875 -46.453125 C 21.445312 -46.628906 21.820312 -46.640625 22.09375 -46.484375 C 22.363281 -46.335938 22.441406 -46.085938 22.328125 -45.734375 C 22.265625 -45.492188 21.929688 -45.054688 21.328125 -44.421875 C 20.734375 -43.796875 20.085938 -43.179688 19.390625 -42.578125 C 18.703125 -41.972656 18.117188 -41.492188 17.640625 -41.140625 L 15.390625 -39.34375 L 14.21875 -38.4375 L 13.234375 -37.71875 L 12.328125 -37.09375 C 12.210938 -37.03125 11.820312 -36.785156 11.15625 -36.359375 C 10.5 -35.941406 10.019531 -35.613281 9.71875 -35.375 C 9.476562 -35.132812 9.175781 -34.910156 8.8125 -34.703125 C 8.457031 -34.492188 8.25 -34.390625 8.1875 -34.390625 L 7.375 -33.84375 C 7.019531 -33.601562 6.75 -33.421875 6.5625 -33.296875 C 6.382812 -33.179688 6.085938 -33.003906 5.671875 -32.765625 L 4.046875 -31.6875 C 3.804688 -31.5625 3.628906 -31.441406 3.515625 -31.328125 C 3.515625 -31.265625 3.453125 -31.175781 3.328125 -31.0625 C 3.265625 -31.0625 2.914062 -30.65625 2.28125 -29.84375 C 1.65625 -29.03125 0.96875 -28.128906 0.21875 -27.140625 C -0.53125 -26.148438 -1.113281 -25.351562 -1.53125 -24.75 C -2.726562 -22.945312 -3.414062 -21.359375 -3.59375 -19.984375 C -3.78125 -19.023438 -3.898438 -18.546875 -3.953125 -18.546875 Z M 5.84375 -33.75 L 7.5625 -34.75 L 7.921875 -35.015625 C 8.097656 -35.140625 8.472656 -35.394531 9.046875 -35.78125 C 9.617188 -36.164062 10.023438 -36.476562 10.265625 -36.71875 C 10.441406 -36.84375 10.738281 -37.054688 11.15625 -37.359375 C 11.582031 -37.660156 11.882812 -37.835938 12.0625 -37.890625 C 12.238281 -38.015625 12.71875 -38.359375 13.5 -38.921875 C 14.28125 -39.492188 14.851562 -39.929688 15.21875 -40.234375 L 15.75 -40.59375 C 15.8125 -40.59375 16.265625 -40.953125 17.109375 -41.671875 L 18.8125 -43.03125 L 20.078125 -44.203125 L 20.34375 -44.46875 L 20.53125 -44.734375 L 20.609375 -44.828125 L 20.890625 -45.015625 L 20.890625 -45.09375 L 21.0625 -45.28125 C 21.125 -45.34375 21.15625 -45.382812 21.15625 -45.40625 C 21.15625 -45.4375 21.15625 -45.453125 21.15625 -45.453125 C 21.15625 -45.691406 21.09375 -45.753906 20.96875 -45.640625 C 20.789062 -45.640625 20.671875 -45.609375 20.609375 -45.546875 L 20.4375 -45.453125 L 19.984375 -45.1875 L 19.359375 -44.828125 L 17.90625 -43.921875 L 17.375 -43.5625 L 16.65625 -42.9375 L 15.296875 -42.03125 L 12.0625 -39.421875 C 12 -39.421875 11.5625 -39.078125 10.75 -38.390625 C 9.945312 -37.703125 9.109375 -36.96875 8.234375 -36.1875 C 7.367188 -35.40625 6.785156 -34.863281 6.484375 -34.5625 C 6.117188 -34.144531 5.890625 -33.890625 5.796875 -33.796875 C 5.710938 -33.710938 5.726562 -33.695312 5.84375 -33.75 Z M 5.84375 -33.75 "/></g></g></g><g fill="#ffffff" fill-opacity="1"><g transform="translate(240.784421, 200.097359)"><g><path d="M -3.953125 -18.546875 C -4.078125 -18.609375 -4.171875 -18.710938 -4.234375 -18.859375 C -4.296875 -19.003906 -4.351562 -19.316406 -4.40625 -19.796875 C -4.46875 -20.285156 -4.4375 -20.875 -4.3125 -21.5625 C -4.195312 -22.25 -4.019531 -22.742188 -3.78125 -23.046875 C -3.65625 -23.398438 -3.59375 -23.609375 -3.59375 -23.671875 C -3.539062 -23.796875 -3.484375 -23.929688 -3.421875 -24.078125 C -3.359375 -24.222656 -3.238281 -24.421875 -3.0625 -24.671875 C -2.820312 -24.960938 -2.597656 -25.285156 -2.390625 -25.640625 C -2.179688 -26.003906 -2.078125 -26.21875 -2.078125 -26.28125 C -2.078125 -26.34375 -2.0625 -26.390625 -2.03125 -26.421875 C -2 -26.453125 -1.984375 -26.4375 -1.984375 -26.375 C -1.859375 -26.375 -1.796875 -26.460938 -1.796875 -26.640625 C -1.796875 -26.765625 -1.738281 -26.828125 -1.625 -26.828125 C -1.5625 -26.828125 -1.53125 -26.882812 -1.53125 -27 L -1.265625 -27.28125 C -1.140625 -27.28125 -1.046875 -27.367188 -0.984375 -27.546875 C -0.984375 -27.722656 -0.957031 -27.8125 -0.90625 -27.8125 L -0.1875 -28.71875 C 0.238281 -29.257812 0.484375 -29.53125 0.546875 -29.53125 C 0.597656 -29.53125 0.625 -29.585938 0.625 -29.703125 C 0.625 -29.765625 0.773438 -29.945312 1.078125 -30.25 L 1.4375 -30.703125 C 1.4375 -30.816406 1.554688 -30.992188 1.796875 -31.234375 L 1.625 -31.234375 C 1.5625 -31.234375 1.4375 -31.320312 1.25 -31.5 C 1.070312 -31.6875 0.984375 -31.804688 0.984375 -31.859375 C 0.984375 -32.046875 1.046875 -32.078125 1.171875 -31.953125 C 1.285156 -31.890625 1.507812 -31.914062 1.84375 -32.03125 C 2.175781 -32.15625 2.34375 -32.25 2.34375 -32.3125 C 2.34375 -32.3125 2.359375 -32.328125 2.390625 -32.359375 C 2.421875 -32.390625 2.460938 -32.375 2.515625 -32.3125 C 2.515625 -32.3125 2.546875 -32.3125 2.609375 -32.3125 C 2.671875 -32.3125 2.734375 -32.34375 2.796875 -32.40625 L 4.59375 -34.203125 C 4.832031 -34.378906 5.351562 -34.859375 6.15625 -35.640625 C 6.96875 -36.421875 7.613281 -37.023438 8.09375 -37.453125 C 9.300781 -38.472656 10.503906 -39.460938 11.703125 -40.421875 C 12.898438 -41.378906 14.070312 -42.28125 15.21875 -43.125 C 15.632812 -43.414062 16.082031 -43.710938 16.5625 -44.015625 C 17.039062 -44.316406 17.488281 -44.585938 17.90625 -44.828125 C 18.269531 -45.128906 18.75 -45.441406 19.34375 -45.765625 C 19.945312 -46.097656 20.488281 -46.328125 20.96875 -46.453125 C 21.445312 -46.628906 21.820312 -46.640625 22.09375 -46.484375 C 22.363281 -46.335938 22.441406 -46.085938 22.328125 -45.734375 C 22.265625 -45.492188 21.929688 -45.054688 21.328125 -44.421875 C 20.734375 -43.796875 20.085938 -43.179688 19.390625 -42.578125 C 18.703125 -41.972656 18.117188 -41.492188 17.640625 -41.140625 L 15.390625 -39.34375 L 14.21875 -38.4375 L 13.234375 -37.71875 L 12.328125 -37.09375 C 12.210938 -37.03125 11.820312 -36.785156 11.15625 -36.359375 C 10.5 -35.941406 10.019531 -35.613281 9.71875 -35.375 C 9.476562 -35.132812 9.175781 -34.910156 8.8125 -34.703125 C 8.457031 -34.492188 8.25 -34.390625 8.1875 -34.390625 L 7.375 -33.84375 C 7.019531 -33.601562 6.75 -33.421875 6.5625 -33.296875 C 6.382812 -33.179688 6.085938 -33.003906 5.671875 -32.765625 L 4.046875 -31.6875 C 3.804688 -31.5625 3.628906 -31.441406 3.515625 -31.328125 C 3.515625 -31.265625 3.453125 -31.175781 3.328125 -31.0625 C 3.265625 -31.0625 2.914062 -30.65625 2.28125 -29.84375 C 1.65625 -29.03125 0.96875 -28.128906 0.21875 -27.140625 C -0.53125 -26.148438 -1.113281 -25.351562 -1.53125 -24.75 C -2.726562 -22.945312 -3.414062 -21.359375 -3.59375 -19.984375 C -3.78125 -19.023438 -3.898438 -18.546875 -3.953125 -18.546875 Z M 5.84375 -33.75 L 7.5625 -34.75 L 7.921875 -35.015625 C 8.097656 -35.140625 8.472656 -35.394531 9.046875 -35.78125 C 9.617188 -36.164062 10.023438 -36.476562 10.265625 -36.71875 C 10.441406 -36.84375 10.738281 -37.054688 11.15625 -37.359375 C 11.582031 -37.660156 11.882812 -37.835938 12.0625 -37.890625 C 12.238281 -38.015625 12.71875 -38.359375 13.5 -38.921875 C 14.28125 -39.492188 14.851562 -39.929688 15.21875 -40.234375 L 15.75 -40.59375 C 15.8125 -40.59375 16.265625 -40.953125 17.109375 -41.671875 L 18.8125 -43.03125 L 20.078125 -44.203125 L 20.34375 -44.46875 L 20.53125 -44.734375 L 20.609375 -44.828125 L 20.890625 -45.015625 L 20.890625 -45.09375 L 21.0625 -45.28125 C 21.125 -45.34375 21.15625 -45.382812 21.15625 -45.40625 C 21.15625 -45.4375 21.15625 -45.453125 21.15625 -45.453125 C 21.15625 -45.691406 21.09375 -45.753906 20.96875 -45.640625 C 20.789062 -45.640625 20.671875 -45.609375 20.609375 -45.546875 L 20.4375 -45.453125 L 19.984375 -45.1875 L 19.359375 -44.828125 L 17.90625 -43.921875 L 17.375 -43.5625 L 16.65625 -42.9375 L 15.296875 -42.03125 L 12.0625 -39.421875 C 12 -39.421875 11.5625 -39.078125 10.75 -38.390625 C 9.945312 -37.703125 9.109375 -36.96875 8.234375 -36.1875 C 7.367188 -35.40625 6.785156 -34.863281 6.484375 -34.5625 C 6.117188 -34.144531 5.890625 -33.890625 5.796875 -33.796875 C 5.710938 -33.710938 5.726562 -33.695312 5.84375 -33.75 Z M 5.84375 -33.75 "/></g></g></g><g fill="#ffffff" fill-opacity="1"><g transform="translate(248.705005, 200.097359)"><g><path d="M 5.3125 -24.125 C 4.226562 -24 3.445312 -24.148438 2.96875 -24.578125 C 2.789062 -24.691406 2.671875 -24.957031 2.609375 -25.375 C 2.546875 -25.800781 2.578125 -26.132812 2.703125 -26.375 L 2.875 -26.640625 L 2.875 -26.734375 L 3.0625 -27.09375 L 2.96875 -27.09375 C 2.550781 -26.851562 1.800781 -26.445312 0.71875 -25.875 C -0.363281 -25.3125 -1.113281 -24.878906 -1.53125 -24.578125 C -1.945312 -24.453125 -2.15625 -24.390625 -2.15625 -24.390625 C -2.34375 -24.390625 -2.476562 -24.460938 -2.5625 -24.609375 C -2.65625 -24.765625 -2.671875 -24.90625 -2.609375 -25.03125 L -2.609375 -25.296875 C -2.066406 -25.835938 -1.644531 -26.46875 -1.34375 -27.1875 L -0.71875 -28 C -0.175781 -28.78125 0.269531 -28.957031 0.625 -28.53125 C 0.8125 -28.289062 0.8125 -27.992188 0.625 -27.640625 L 0 -26.640625 L 2.875 -27.90625 C 3.0625 -28.019531 3.257812 -28.125 3.46875 -28.21875 C 3.675781 -28.3125 3.8125 -28.382812 3.875 -28.4375 C 4.53125 -28.925781 4.890625 -28.925781 4.953125 -28.4375 C 5.015625 -27.957031 4.863281 -27.507812 4.5 -27.09375 C 3.894531 -26.488281 3.65625 -26.007812 3.78125 -25.65625 C 3.78125 -24.632812 5.941406 -24.785156 10.265625 -26.109375 C 10.742188 -26.222656 11.382812 -26.445312 12.1875 -26.78125 C 13 -27.113281 13.738281 -27.398438 14.40625 -27.640625 C 15.363281 -28.054688 16.035156 -28.320312 16.421875 -28.4375 C 16.816406 -28.5625 17.046875 -28.59375 17.109375 -28.53125 C 17.398438 -28.414062 17.457031 -28.296875 17.28125 -28.171875 C 17.101562 -28.054688 16.773438 -27.90625 16.296875 -27.71875 C 15.929688 -27.601562 15.671875 -27.515625 15.515625 -27.453125 C 15.367188 -27.390625 15.117188 -27.269531 14.765625 -27.09375 L 14.21875 -26.828125 L 13.234375 -26.375 L 11.96875 -25.828125 C 11.96875 -25.828125 11.382812 -25.632812 10.21875 -25.25 C 9.050781 -24.863281 8.046875 -24.578125 7.203125 -24.390625 Z M 5.3125 -24.125 "/></g></g></g><g fill="#ffffff" fill-opacity="1"><g transform="translate(265.626255, 200.097359)"><g><path d="M -0.90625 -24.578125 C -1.625 -24.515625 -2.070312 -24.5 -2.25 -24.53125 C -2.425781 -24.5625 -2.546875 -24.726562 -2.609375 -25.03125 C -2.734375 -25.320312 -2.613281 -25.769531 -2.25 -26.375 C -1.769531 -27.09375 -1.078125 -27.8125 -0.171875 -28.53125 C 0.722656 -29.25 1.617188 -29.757812 2.515625 -30.0625 C 3.960938 -30.601562 4.773438 -30.632812 4.953125 -30.15625 C 5.015625 -29.914062 4.351562 -29.316406 2.96875 -28.359375 C 2.1875 -27.816406 1.539062 -27.410156 1.03125 -27.140625 C 0.519531 -26.867188 0.0234375 -26.671875 -0.453125 -26.546875 C -0.992188 -26.429688 -1.320312 -26.222656 -1.4375 -25.921875 C -1.675781 -25.679688 -1.707031 -25.53125 -1.53125 -25.46875 C -0.988281 -25.289062 1.832031 -26.3125 6.9375 -28.53125 L 7.109375 -28.625 L 7.375 -28.625 L 7.46875 -28.53125 C 7.707031 -28.414062 7.738281 -28.265625 7.5625 -28.078125 L 6.390625 -27.546875 L 2.34375 -25.75 C 1.5625 -25.320312 0.941406 -25.046875 0.484375 -24.921875 C 0.0351562 -24.804688 -0.425781 -24.691406 -0.90625 -24.578125 Z M -0.1875 -27.546875 C -0.238281 -27.484375 -0.128906 -27.492188 0.140625 -27.578125 C 0.410156 -27.671875 0.785156 -27.835938 1.265625 -28.078125 C 1.679688 -28.316406 2.144531 -28.601562 2.65625 -28.9375 C 3.164062 -29.269531 3.453125 -29.46875 3.515625 -29.53125 C 3.515625 -29.644531 3.347656 -29.625 3.015625 -29.46875 C 2.679688 -29.320312 2.367188 -29.191406 2.078125 -29.078125 C 1.773438 -29.015625 1.335938 -28.769531 0.765625 -28.34375 C 0.191406 -27.925781 -0.125 -27.660156 -0.1875 -27.546875 Z M -0.1875 -27.546875 "/></g></g></g><g fill="#ffffff" fill-opacity="1"><g transform="translate(272.826789, 200.097359)"><g><path d="M -3.421875 -20.25 C -3.597656 -20.1875 -3.789062 -20.1875 -4 -20.25 C -4.21875 -20.3125 -4.328125 -20.40625 -4.328125 -20.53125 C -4.328125 -20.53125 -4.351562 -20.585938 -4.40625 -20.703125 C -4.46875 -20.828125 -4.5625 -20.914062 -4.6875 -20.96875 C -4.863281 -21.15625 -4.953125 -21.488281 -4.953125 -21.96875 C -4.890625 -22.625 -4.257812 -23.28125 -3.0625 -23.9375 L -2.078125 -24.671875 C -2.015625 -24.671875 -1.921875 -24.695312 -1.796875 -24.75 C -1.679688 -24.8125 -1.53125 -24.875 -1.34375 -24.9375 C -0.863281 -25.175781 -0.597656 -25.328125 -0.546875 -25.390625 C -0.546875 -25.503906 -0.53125 -25.710938 -0.5 -26.015625 C -0.46875 -26.316406 -0.453125 -26.675781 -0.453125 -27.09375 C -0.453125 -27.9375 -0.40625 -28.503906 -0.3125 -28.796875 C -0.226562 -29.097656 0.0234375 -29.367188 0.453125 -29.609375 C 1.046875 -29.910156 1.4375 -29.972656 1.625 -29.796875 C 1.976562 -29.316406 1.828125 -28.988281 1.171875 -28.8125 C 0.929688 -28.75 0.796875 -28.65625 0.765625 -28.53125 C 0.734375 -28.414062 0.660156 -28.054688 0.546875 -27.453125 C 0.484375 -26.847656 0.507812 -26.457031 0.625 -26.28125 C 0.75 -26.101562 0.960938 -26.070312 1.265625 -26.1875 C 1.617188 -26.425781 2.257812 -26.695312 3.1875 -27 C 4.125 -27.300781 5.070312 -27.570312 6.03125 -27.8125 C 6.988281 -28.050781 7.648438 -28.203125 8.015625 -28.265625 C 8.492188 -28.441406 8.789062 -28.441406 8.90625 -28.265625 C 9.144531 -28.023438 8.9375 -27.816406 8.28125 -27.640625 C 7.5 -27.398438 6.671875 -27.15625 5.796875 -26.90625 C 4.929688 -26.664062 4.679688 -26.609375 5.046875 -26.734375 C 4.441406 -26.554688 3.867188 -26.375 3.328125 -26.1875 C 2.785156 -26.007812 2.335938 -25.832031 1.984375 -25.65625 L 1.078125 -25.296875 C 0.773438 -25.117188 0.597656 -24.816406 0.546875 -24.390625 C 0.421875 -23.847656 0.269531 -23.457031 0.09375 -23.21875 C -0.09375 -22.800781 -0.585938 -22.234375 -1.390625 -21.515625 C -2.203125 -20.796875 -2.878906 -20.375 -3.421875 -20.25 Z M -3.421875 -21.25 C -3.179688 -21.25 -2.757812 -21.546875 -2.15625 -22.140625 C -1.675781 -22.617188 -1.359375 -22.976562 -1.203125 -23.21875 C -1.054688 -23.457031 -0.957031 -23.695312 -0.90625 -23.9375 L -0.90625 -24.390625 L -1.53125 -24.03125 L -2.4375 -23.5 C -2.488281 -23.4375 -2.785156 -23.238281 -3.328125 -22.90625 C -3.867188 -22.570312 -4.140625 -22.257812 -4.140625 -21.96875 C -4.140625 -21.488281 -3.898438 -21.25 -3.421875 -21.25 Z M -3.421875 -21.25 "/></g></g></g><g fill="#ffffff" fill-opacity="1"><g transform="translate(281.557431, 200.097359)"><g><path d="M -3.421875 -20.25 C -3.597656 -20.1875 -3.789062 -20.1875 -4 -20.25 C -4.21875 -20.3125 -4.328125 -20.40625 -4.328125 -20.53125 C -4.328125 -20.53125 -4.351562 -20.585938 -4.40625 -20.703125 C -4.46875 -20.828125 -4.5625 -20.914062 -4.6875 -20.96875 C -4.863281 -21.15625 -4.953125 -21.488281 -4.953125 -21.96875 C -4.890625 -22.625 -4.257812 -23.28125 -3.0625 -23.9375 L -2.078125 -24.671875 C -2.015625 -24.671875 -1.921875 -24.695312 -1.796875 -24.75 C -1.679688 -24.8125 -1.53125 -24.875 -1.34375 -24.9375 C -0.863281 -25.175781 -0.597656 -25.328125 -0.546875 -25.390625 C -0.546875 -25.503906 -0.53125 -25.710938 -0.5 -26.015625 C -0.46875 -26.316406 -0.453125 -26.675781 -0.453125 -27.09375 C -0.453125 -27.9375 -0.40625 -28.503906 -0.3125 -28.796875 C -0.226562 -29.097656 0.0234375 -29.367188 0.453125 -29.609375 C 1.046875 -29.910156 1.4375 -29.972656 1.625 -29.796875 C 1.976562 -29.316406 1.828125 -28.988281 1.171875 -28.8125 C 0.929688 -28.75 0.796875 -28.65625 0.765625 -28.53125 C 0.734375 -28.414062 0.660156 -28.054688 0.546875 -27.453125 C 0.484375 -26.847656 0.507812 -26.457031 0.625 -26.28125 C 0.75 -26.101562 0.960938 -26.070312 1.265625 -26.1875 C 1.617188 -26.425781 2.257812 -26.695312 3.1875 -27 C 4.125 -27.300781 5.070312 -27.570312 6.03125 -27.8125 C 6.988281 -28.050781 7.648438 -28.203125 8.015625 -28.265625 C 8.492188 -28.441406 8.789062 -28.441406 8.90625 -28.265625 C 9.144531 -28.023438 8.9375 -27.816406 8.28125 -27.640625 C 7.5 -27.398438 6.671875 -27.15625 5.796875 -26.90625 C 4.929688 -26.664062 4.679688 -26.609375 5.046875 -26.734375 C 4.441406 -26.554688 3.867188 -26.375 3.328125 -26.1875 C 2.785156 -26.007812 2.335938 -25.832031 1.984375 -25.65625 L 1.078125 -25.296875 C 0.773438 -25.117188 0.597656 -24.816406 0.546875 -24.390625 C 0.421875 -23.847656 0.269531 -23.457031 0.09375 -23.21875 C -0.09375 -22.800781 -0.585938 -22.234375 -1.390625 -21.515625 C -2.203125 -20.796875 -2.878906 -20.375 -3.421875 -20.25 Z M -3.421875 -21.25 C -3.179688 -21.25 -2.757812 -21.546875 -2.15625 -22.140625 C -1.675781 -22.617188 -1.359375 -22.976562 -1.203125 -23.21875 C -1.054688 -23.457031 -0.957031 -23.695312 -0.90625 -23.9375 L -0.90625 -24.390625 L -1.53125 -24.03125 L -2.4375 -23.5 C -2.488281 -23.4375 -2.785156 -23.238281 -3.328125 -22.90625 C -3.867188 -22.570312 -4.140625 -22.257812 -4.140625 -21.96875 C -4.140625 -21.488281 -3.898438 -21.25 -3.421875 -21.25 Z M -3.421875 -21.25 "/></g></g></g><path stroke-linecap="butt" transform="matrix(0.749982, -0.00520926, 0.00520926, 0.749982, 84.417129, 193.820452)" fill="none" stroke-linejoin="miter" d="M -0.00235132 0.49981 L 277.483518 0.500054 " stroke="#000000" stroke-width="1" stroke-opacity="1" stroke-miterlimit="4"/><g fill="#ffffff" fill-opacity="1"><g transform="translate(99.626559, 215.882809)"><g><path d="M 1.34375 -4.90625 L 2.046875 -4.90625 L 1.0625 0 L 0.359375 0 Z M 1.34375 -4.90625 "/></g></g></g><g fill="#ffffff" fill-opacity="1"><g transform="translate(103.896591, 215.882809)"><g><path d="M 6.5625 -4.90625 L 5.578125 0 L 4.90625 0 L 5.625 -3.546875 L 3.296875 -0.59375 L 2.984375 -0.59375 L 1.75 -3.609375 L 1.03125 0 L 0.359375 0 L 1.34375 -4.90625 L 1.90625 -4.90625 L 3.28125 -1.453125 L 5.953125 -4.90625 Z M 6.5625 -4.90625 "/></g></g></g><g fill="#ffffff" fill-opacity="1"><g transform="translate(112.681666, 215.882809)"><g><path d="M 3.15625 -4.90625 C 3.726562 -4.90625 4.171875 -4.78125 4.484375 -4.53125 C 4.804688 -4.28125 4.96875 -3.925781 4.96875 -3.46875 C 4.96875 -3.050781 4.875 -2.691406 4.6875 -2.390625 C 4.5 -2.097656 4.234375 -1.875 3.890625 -1.71875 C 3.546875 -1.5625 3.140625 -1.484375 2.671875 -1.484375 L 1.359375 -1.484375 L 1.0625 0 L 0.359375 0 L 1.34375 -4.90625 Z M 2.6875 -2.09375 C 3.1875 -2.09375 3.570312 -2.203125 3.84375 -2.421875 C 4.125 -2.648438 4.265625 -2.976562 4.265625 -3.40625 C 4.265625 -3.695312 4.160156 -3.914062 3.953125 -4.0625 C 3.753906 -4.21875 3.46875 -4.296875 3.09375 -4.296875 L 1.921875 -4.296875 L 1.484375 -2.09375 Z M 2.6875 -2.09375 "/></g></g></g><g fill="#ffffff" fill-opacity="1"><g transform="translate(119.835725, 215.882809)"><g><path d="M 4.984375 -3.46875 C 4.984375 -2.988281 4.851562 -2.585938 4.59375 -2.265625 C 4.332031 -1.941406 3.96875 -1.71875 3.5 -1.59375 L 4.40625 0 L 3.65625 0 L 2.8125 -1.5 L 1.359375 -1.5 L 1.078125 0 L 0.359375 0 L 1.34375 -4.90625 L 3.171875 -4.90625 C 3.742188 -4.90625 4.1875 -4.78125 4.5 -4.53125 C 4.820312 -4.28125 4.984375 -3.925781 4.984375 -3.46875 Z M 2.6875 -2.09375 C 3.195312 -2.09375 3.585938 -2.203125 3.859375 -2.421875 C 4.140625 -2.648438 4.28125 -2.976562 4.28125 -3.40625 C 4.28125 -3.695312 4.175781 -3.914062 3.96875 -4.0625 C 3.769531 -4.21875 3.484375 -4.296875 3.109375 -4.296875 L 1.921875 -4.296875 L 1.484375 -2.09375 Z M 2.6875 -2.09375 "/></g></g></g><g fill="#ffffff" fill-opacity="1"><g transform="translate(127.02478, 215.882809)"><g><path d="M 2.71875 0.0625 C 2.238281 0.0625 1.828125 -0.0234375 1.484375 -0.203125 C 1.140625 -0.378906 0.875 -0.617188 0.6875 -0.921875 C 0.507812 -1.234375 0.421875 -1.597656 0.421875 -2.015625 C 0.421875 -2.554688 0.539062 -3.050781 0.78125 -3.5 C 1.03125 -3.945312 1.378906 -4.300781 1.828125 -4.5625 C 2.285156 -4.820312 2.804688 -4.953125 3.390625 -4.953125 C 3.867188 -4.953125 4.28125 -4.863281 4.625 -4.6875 C 4.976562 -4.519531 5.242188 -4.28125 5.421875 -3.96875 C 5.609375 -3.65625 5.703125 -3.296875 5.703125 -2.890625 C 5.703125 -2.347656 5.578125 -1.851562 5.328125 -1.40625 C 5.085938 -0.957031 4.738281 -0.597656 4.28125 -0.328125 C 3.832031 -0.0664062 3.3125 0.0625 2.71875 0.0625 Z M 2.78125 -0.5625 C 3.21875 -0.5625 3.601562 -0.664062 3.9375 -0.875 C 4.28125 -1.082031 4.539062 -1.359375 4.71875 -1.703125 C 4.90625 -2.046875 5 -2.425781 5 -2.84375 C 5 -3.300781 4.851562 -3.660156 4.5625 -3.921875 C 4.28125 -4.191406 3.875 -4.328125 3.34375 -4.328125 C 2.90625 -4.328125 2.515625 -4.222656 2.171875 -4.015625 C 1.835938 -3.816406 1.578125 -3.539062 1.390625 -3.1875 C 1.210938 -2.84375 1.125 -2.460938 1.125 -2.046875 C 1.125 -1.597656 1.265625 -1.238281 1.546875 -0.96875 C 1.835938 -0.695312 2.25 -0.5625 2.78125 -0.5625 Z M 2.78125 -0.5625 "/></g></g></g><g fill="#ffffff" fill-opacity="1"><g transform="translate(135.004849, 215.882809)"><g><path d="M 5.59375 -4.90625 L 2.46875 0 L 1.78125 0 L 0.609375 -4.90625 L 1.328125 -4.90625 L 2.28125 -0.875 L 4.875 -4.90625 Z M 5.59375 -4.90625 "/></g></g></g><g fill="#ffffff" fill-opacity="1"><g transform="translate(142.088909, 215.882809)"><g><path d="M 1.34375 -4.90625 L 2.046875 -4.90625 L 1.0625 0 L 0.359375 0 Z M 1.34375 -4.90625 "/></g></g></g><g fill="#ffffff" fill-opacity="1"><g transform="translate(146.358939, 215.882809)"><g><path d="M 5.5625 -4.90625 L 4.578125 0 L 4 0 L 1.8125 -3.765625 L 1.0625 0 L 0.359375 0 L 1.34375 -4.90625 L 1.921875 -4.90625 L 4.109375 -1.125 L 4.859375 -4.90625 Z M 5.5625 -4.90625 "/></g></g></g><g fill="#ffffff" fill-opacity="1"><g transform="translate(154.142999, 215.882809)"><g><path d="M 4.25 -2.484375 L 4.921875 -2.484375 L 4.546875 -0.546875 C 4.304688 -0.359375 4.03125 -0.207031 3.71875 -0.09375 C 3.40625 0.0078125 3.085938 0.0625 2.765625 0.0625 C 2.285156 0.0625 1.867188 -0.0234375 1.515625 -0.203125 C 1.160156 -0.378906 0.890625 -0.617188 0.703125 -0.921875 C 0.515625 -1.234375 0.421875 -1.597656 0.421875 -2.015625 C 0.421875 -2.554688 0.539062 -3.050781 0.78125 -3.5 C 1.03125 -3.945312 1.382812 -4.300781 1.84375 -4.5625 C 2.300781 -4.820312 2.832031 -4.953125 3.4375 -4.953125 C 3.863281 -4.953125 4.234375 -4.882812 4.546875 -4.75 C 4.867188 -4.625 5.128906 -4.441406 5.328125 -4.203125 L 4.828125 -3.765625 C 4.660156 -3.960938 4.457031 -4.101562 4.21875 -4.1875 C 3.988281 -4.28125 3.71875 -4.328125 3.40625 -4.328125 C 2.945312 -4.328125 2.546875 -4.226562 2.203125 -4.03125 C 1.859375 -3.832031 1.59375 -3.554688 1.40625 -3.203125 C 1.21875 -2.859375 1.125 -2.472656 1.125 -2.046875 C 1.125 -1.597656 1.269531 -1.238281 1.5625 -0.96875 C 1.851562 -0.695312 2.273438 -0.5625 2.828125 -0.5625 C 3.234375 -0.5625 3.601562 -0.664062 3.9375 -0.875 Z M 4.25 -2.484375 "/></g></g></g><g fill="#ffffff" fill-opacity="1"><g transform="translate(161.647061, 215.882809)"><g/></g></g><g fill="#ffffff" fill-opacity="1"><g transform="translate(165.630088, 215.882809)"><g><path d="M 4.15625 -2.53125 C 4.375 -2.457031 4.539062 -2.332031 4.65625 -2.15625 C 4.78125 -1.988281 4.84375 -1.78125 4.84375 -1.53125 C 4.84375 -1.039062 4.648438 -0.660156 4.265625 -0.390625 C 3.890625 -0.128906 3.375 0 2.71875 0 L 0.359375 0 L 1.34375 -4.90625 L 3.515625 -4.90625 C 4.003906 -4.90625 4.382812 -4.8125 4.65625 -4.625 C 4.925781 -4.4375 5.0625 -4.171875 5.0625 -3.828125 C 5.0625 -3.503906 4.976562 -3.234375 4.8125 -3.015625 C 4.644531 -2.796875 4.425781 -2.632812 4.15625 -2.53125 Z M 1.921875 -4.328125 L 1.609375 -2.765625 L 3.046875 -2.765625 C 3.441406 -2.765625 3.753906 -2.84375 3.984375 -3 C 4.210938 -3.164062 4.328125 -3.398438 4.328125 -3.703125 C 4.328125 -3.921875 4.242188 -4.078125 4.078125 -4.171875 C 3.921875 -4.273438 3.679688 -4.328125 3.359375 -4.328125 Z M 2.765625 -0.5625 C 3.210938 -0.5625 3.554688 -0.644531 3.796875 -0.8125 C 4.035156 -0.976562 4.15625 -1.21875 4.15625 -1.53125 C 4.15625 -1.769531 4.066406 -1.941406 3.890625 -2.046875 C 3.722656 -2.148438 3.472656 -2.203125 3.140625 -2.203125 L 1.5 -2.203125 L 1.171875 -0.5625 Z M 2.765625 -0.5625 "/></g></g></g><g fill="#ffffff" fill-opacity="1"><g transform="translate(173.029144, 215.882809)"><g><path d="M 2.71875 0.0625 C 2.238281 0.0625 1.828125 -0.0234375 1.484375 -0.203125 C 1.140625 -0.378906 0.875 -0.617188 0.6875 -0.921875 C 0.507812 -1.234375 0.421875 -1.597656 0.421875 -2.015625 C 0.421875 -2.554688 0.539062 -3.050781 0.78125 -3.5 C 1.03125 -3.945312 1.378906 -4.300781 1.828125 -4.5625 C 2.285156 -4.820312 2.804688 -4.953125 3.390625 -4.953125 C 3.867188 -4.953125 4.28125 -4.863281 4.625 -4.6875 C 4.976562 -4.519531 5.242188 -4.28125 5.421875 -3.96875 C 5.609375 -3.65625 5.703125 -3.296875 5.703125 -2.890625 C 5.703125 -2.347656 5.578125 -1.851562 5.328125 -1.40625 C 5.085938 -0.957031 4.738281 -0.597656 4.28125 -0.328125 C 3.832031 -0.0664062 3.3125 0.0625 2.71875 0.0625 Z M 2.78125 -0.5625 C 3.21875 -0.5625 3.601562 -0.664062 3.9375 -0.875 C 4.28125 -1.082031 4.539062 -1.359375 4.71875 -1.703125 C 4.90625 -2.046875 5 -2.425781 5 -2.84375 C 5 -3.300781 4.851562 -3.660156 4.5625 -3.921875 C 4.28125 -4.191406 3.875 -4.328125 3.34375 -4.328125 C 2.90625 -4.328125 2.515625 -4.222656 2.171875 -4.015625 C 1.835938 -3.816406 1.578125 -3.539062 1.390625 -3.1875 C 1.210938 -2.84375 1.125 -2.460938 1.125 -2.046875 C 1.125 -1.597656 1.265625 -1.238281 1.546875 -0.96875 C 1.835938 -0.695312 2.25 -0.5625 2.78125 -0.5625 Z M 2.78125 -0.5625 "/></g></g></g><g fill="#ffffff" fill-opacity="1"><g transform="translate(181.009217, 215.882809)"><g><path d="M 1.34375 -4.90625 L 3.265625 -4.90625 C 3.753906 -4.90625 4.171875 -4.820312 4.515625 -4.65625 C 4.867188 -4.488281 5.140625 -4.253906 5.328125 -3.953125 C 5.515625 -3.648438 5.609375 -3.296875 5.609375 -2.890625 C 5.609375 -2.316406 5.476562 -1.8125 5.21875 -1.375 C 4.96875 -0.9375 4.613281 -0.597656 4.15625 -0.359375 C 3.695312 -0.117188 3.164062 0 2.5625 0 L 0.359375 0 Z M 2.578125 -0.609375 C 3.046875 -0.609375 3.453125 -0.703125 3.796875 -0.890625 C 4.148438 -1.085938 4.421875 -1.351562 4.609375 -1.6875 C 4.804688 -2.03125 4.90625 -2.414062 4.90625 -2.84375 C 4.90625 -3.300781 4.757812 -3.65625 4.46875 -3.90625 C 4.175781 -4.164062 3.75 -4.296875 3.1875 -4.296875 L 1.921875 -4.296875 L 1.1875 -0.609375 Z M 2.578125 -0.609375 "/></g></g></g><g fill="#ffffff" fill-opacity="1"><g transform="translate(188.891282, 215.882809)"><g><path d="M 2.578125 -1.671875 L 2.234375 0 L 1.546875 0 L 1.890625 -1.71875 L 0.59375 -4.90625 L 1.28125 -4.90625 L 2.328125 -2.296875 L 4.421875 -4.90625 L 5.171875 -4.90625 Z M 2.578125 -1.671875 "/></g></g></g><g fill="#ffffff" fill-opacity="1"><g transform="translate(195.520336, 215.882809)"><g/></g></g><g fill="#ffffff" fill-opacity="1"><g transform="translate(199.503368, 215.882809)"><g><path d="M 6.5625 -4.90625 L 5.578125 0 L 4.90625 0 L 5.625 -3.546875 L 3.296875 -0.59375 L 2.984375 -0.59375 L 1.75 -3.609375 L 1.03125 0 L 0.359375 0 L 1.34375 -4.90625 L 1.90625 -4.90625 L 3.28125 -1.453125 L 5.953125 -4.90625 Z M 6.5625 -4.90625 "/></g></g></g><g fill="#ffffff" fill-opacity="1"><g transform="translate(208.288446, 215.882809)"><g><path d="M 1.34375 -4.90625 L 2.046875 -4.90625 L 1.0625 0 L 0.359375 0 Z M 1.34375 -4.90625 "/></g></g></g><g fill="#ffffff" fill-opacity="1"><g transform="translate(212.558481, 215.882809)"><g><path d="M 5.5625 -4.90625 L 4.578125 0 L 4 0 L 1.8125 -3.765625 L 1.0625 0 L 0.359375 0 L 1.34375 -4.90625 L 1.921875 -4.90625 L 4.109375 -1.125 L 4.859375 -4.90625 Z M 5.5625 -4.90625 "/></g></g></g><g fill="#ffffff" fill-opacity="1"><g transform="translate(220.342545, 215.882809)"><g><path d="M 1.34375 -4.90625 L 3.265625 -4.90625 C 3.753906 -4.90625 4.171875 -4.820312 4.515625 -4.65625 C 4.867188 -4.488281 5.140625 -4.253906 5.328125 -3.953125 C 5.515625 -3.648438 5.609375 -3.296875 5.609375 -2.890625 C 5.609375 -2.316406 5.476562 -1.8125 5.21875 -1.375 C 4.96875 -0.9375 4.613281 -0.597656 4.15625 -0.359375 C 3.695312 -0.117188 3.164062 0 2.5625 0 L 0.359375 0 Z M 2.578125 -0.609375 C 3.046875 -0.609375 3.453125 -0.703125 3.796875 -0.890625 C 4.148438 -1.085938 4.421875 -1.351562 4.609375 -1.6875 C 4.804688 -2.03125 4.90625 -2.414062 4.90625 -2.84375 C 4.90625 -3.300781 4.757812 -3.65625 4.46875 -3.90625 C 4.175781 -4.164062 3.75 -4.296875 3.1875 -4.296875 L 1.921875 -4.296875 L 1.1875 -0.609375 Z M 2.578125 -0.609375 "/></g></g></g><g fill="#ffffff" fill-opacity="1"><g transform="translate(228.224609, 215.882809)"><g/></g></g><g fill="#ffffff" fill-opacity="1"><g transform="translate(232.207641, 215.882809)"><g><path d="M 3.765625 -1.21875 L 1.15625 -1.21875 L 0.375 0 L -0.375 0 L 2.828125 -4.90625 L 3.515625 -4.90625 L 4.765625 0 L 4.0625 0 Z M 3.640625 -1.78125 L 3.046875 -4.203125 L 1.515625 -1.78125 Z M 3.640625 -1.78125 "/></g></g></g><g fill="#ffffff" fill-opacity="1"><g transform="translate(239.4317, 215.882809)"><g><path d="M 5.5625 -4.90625 L 4.578125 0 L 4 0 L 1.8125 -3.765625 L 1.0625 0 L 0.359375 0 L 1.34375 -4.90625 L 1.921875 -4.90625 L 4.109375 -1.125 L 4.859375 -4.90625 Z M 5.5625 -4.90625 "/></g></g></g><g fill="#ffffff" fill-opacity="1"><g transform="translate(247.215764, 215.882809)"><g><path d="M 1.34375 -4.90625 L 3.265625 -4.90625 C 3.753906 -4.90625 4.171875 -4.820312 4.515625 -4.65625 C 4.867188 -4.488281 5.140625 -4.253906 5.328125 -3.953125 C 5.515625 -3.648438 5.609375 -3.296875 5.609375 -2.890625 C 5.609375 -2.316406 5.476562 -1.8125 5.21875 -1.375 C 4.96875 -0.9375 4.613281 -0.597656 4.15625 -0.359375 C 3.695312 -0.117188 3.164062 0 2.5625 0 L 0.359375 0 Z M 2.578125 -0.609375 C 3.046875 -0.609375 3.453125 -0.703125 3.796875 -0.890625 C 4.148438 -1.085938 4.421875 -1.351562 4.609375 -1.6875 C 4.804688 -2.03125 4.90625 -2.414062 4.90625 -2.84375 C 4.90625 -3.300781 4.757812 -3.65625 4.46875 -3.90625 C 4.175781 -4.164062 3.75 -4.296875 3.1875 -4.296875 L 1.921875 -4.296875 L 1.1875 -0.609375 Z M 2.578125 -0.609375 "/></g></g></g><g fill="#ffffff" fill-opacity="1"><g transform="translate(255.097819, 215.882809)"><g/></g></g><g fill="#ffffff" fill-opacity="1"><g transform="translate(259.080851, 215.882809)"><g><path d="M 1.875 0.0625 C 1.507812 0.0625 1.15625 0.00390625 0.8125 -0.109375 C 0.476562 -0.222656 0.222656 -0.363281 0.046875 -0.53125 L 0.34375 -1.09375 C 0.53125 -0.925781 0.765625 -0.789062 1.046875 -0.6875 C 1.335938 -0.582031 1.632812 -0.53125 1.9375 -0.53125 C 2.34375 -0.53125 2.664062 -0.601562 2.90625 -0.75 C 3.144531 -0.90625 3.265625 -1.113281 3.265625 -1.375 C 3.265625 -1.507812 3.21875 -1.625 3.125 -1.71875 C 3.03125 -1.8125 2.914062 -1.882812 2.78125 -1.9375 C 2.644531 -2 2.453125 -2.066406 2.203125 -2.140625 C 1.890625 -2.234375 1.632812 -2.320312 1.4375 -2.40625 C 1.25 -2.488281 1.085938 -2.613281 0.953125 -2.78125 C 0.816406 -2.945312 0.75 -3.164062 0.75 -3.4375 C 0.75 -3.75 0.832031 -4.015625 1 -4.234375 C 1.175781 -4.460938 1.414062 -4.640625 1.71875 -4.765625 C 2.03125 -4.890625 2.382812 -4.953125 2.78125 -4.953125 C 3.082031 -4.953125 3.367188 -4.914062 3.640625 -4.84375 C 3.921875 -4.769531 4.160156 -4.671875 4.359375 -4.546875 L 4.078125 -3.96875 C 3.898438 -4.101562 3.695312 -4.203125 3.46875 -4.265625 C 3.238281 -4.328125 3 -4.359375 2.75 -4.359375 C 2.351562 -4.359375 2.035156 -4.28125 1.796875 -4.125 C 1.554688 -3.96875 1.4375 -3.757812 1.4375 -3.5 C 1.4375 -3.351562 1.484375 -3.226562 1.578125 -3.125 C 1.671875 -3.03125 1.789062 -2.957031 1.9375 -2.90625 C 2.082031 -2.851562 2.273438 -2.785156 2.515625 -2.703125 C 2.828125 -2.609375 3.078125 -2.519531 3.265625 -2.4375 C 3.453125 -2.363281 3.613281 -2.242188 3.75 -2.078125 C 3.882812 -1.921875 3.953125 -1.71875 3.953125 -1.46875 C 3.953125 -1.15625 3.863281 -0.882812 3.6875 -0.65625 C 3.507812 -0.425781 3.265625 -0.25 2.953125 -0.125 C 2.640625 0 2.28125 0.0625 1.875 0.0625 Z M 1.875 0.0625 "/></g></g></g><g fill="#ffffff" fill-opacity="1"><g transform="translate(265.527907, 215.882809)"><g><path d="M 3.15625 -4.90625 C 3.726562 -4.90625 4.171875 -4.78125 4.484375 -4.53125 C 4.804688 -4.28125 4.96875 -3.925781 4.96875 -3.46875 C 4.96875 -3.050781 4.875 -2.691406 4.6875 -2.390625 C 4.5 -2.097656 4.234375 -1.875 3.890625 -1.71875 C 3.546875 -1.5625 3.140625 -1.484375 2.671875 -1.484375 L 1.359375 -1.484375 L 1.0625 0 L 0.359375 0 L 1.34375 -4.90625 Z M 2.6875 -2.09375 C 3.1875 -2.09375 3.570312 -2.203125 3.84375 -2.421875 C 4.125 -2.648438 4.265625 -2.976562 4.265625 -3.40625 C 4.265625 -3.695312 4.160156 -3.914062 3.953125 -4.0625 C 3.753906 -4.21875 3.46875 -4.296875 3.09375 -4.296875 L 1.921875 -4.296875 L 1.484375 -2.09375 Z M 2.6875 -2.09375 "/></g></g></g><g fill="#ffffff" fill-opacity="1"><g transform="translate(272.681968, 215.882809)"><g><path d="M 1.34375 -4.90625 L 2.046875 -4.90625 L 1.0625 0 L 0.359375 0 Z M 1.34375 -4.90625 "/></g></g></g><g fill="#ffffff" fill-opacity="1"><g transform="translate(276.952003, 215.882809)"><g><path d="M 4.984375 -3.46875 C 4.984375 -2.988281 4.851562 -2.585938 4.59375 -2.265625 C 4.332031 -1.941406 3.96875 -1.71875 3.5 -1.59375 L 4.40625 0 L 3.65625 0 L 2.8125 -1.5 L 1.359375 -1.5 L 1.078125 0 L 0.359375 0 L 1.34375 -4.90625 L 3.171875 -4.90625 C 3.742188 -4.90625 4.1875 -4.78125 4.5 -4.53125 C 4.820312 -4.28125 4.984375 -3.925781 4.984375 -3.46875 Z M 2.6875 -2.09375 C 3.195312 -2.09375 3.585938 -2.203125 3.859375 -2.421875 C 4.140625 -2.648438 4.28125 -2.976562 4.28125 -3.40625 C 4.28125 -3.695312 4.175781 -3.914062 3.96875 -4.0625 C 3.769531 -4.21875 3.484375 -4.296875 3.109375 -4.296875 L 1.921875 -4.296875 L 1.484375 -2.09375 Z M 2.6875 -2.09375 "/></g></g></g><g fill="#ffffff" fill-opacity="1"><g transform="translate(284.141063, 215.882809)"><g><path d="M 1.34375 -4.90625 L 2.046875 -4.90625 L 1.0625 0 L 0.359375 0 Z M 1.34375 -4.90625 "/></g></g></g><g fill="#ffffff" fill-opacity="1"><g transform="translate(288.411098, 215.882809)"><g><path d="M 2.1875 -4.296875 L 0.515625 -4.296875 L 0.640625 -4.90625 L 4.6875 -4.90625 L 4.5625 -4.296875 L 2.890625 -4.296875 L 2.03125 0 L 1.34375 0 Z M 2.1875 -4.296875 "/></g></g></g></svg>